# xmcd
#
# Track frame offsets: 
#        150
#        12372
#        24745
#        35779
#        52173
#        63002
#        73388
#        86716
#
# Disc length: 1317 seconds
#
# Revision: 0
# Processed by: cddbd v1.5.2PL0 Copyright (c) Steve Scherf et al.
# Submitted via: ExactAudioCopy v0.95b4
#
DISCID=72052308
DTITLE=Various Artist - Found All the Parts
DYEAR=2007
DGENRE=Country
TTITLE0=Get Over It or Get It Over With
TTITLE1=Get Over It or Get It Over With
TTITLE2=Crawling
TTITLE3=Crawling
TTITLE4=Last One Standing
TTITLE5=Last One Standing
TTITLE6=Trainwreck
TTITLE7=Trainwreck
EXTD=
EXTT0=
EXTT1=
EXTT2=
EXTT3=
EXTT4=
EXTT5=
EXTT6=
EXTT7=
PLAYORDER=
